<svg width="128" height="128" viewBox="13 13 102 102" xmlns="http://www.w3.org/2000/svg">
  <!-- Keenetic Toolkit mark: a white gear on a rounded plate, the letter K inside. -->
  <rect x="13" y="13" width="102" height="102" rx="22" fill="#0097DC"/>
  <g fill="#1B2A41" transform="translate(64 64) scale(0.9) translate(-64 -64)">
    <rect x="53" y="13" width="22" height="22"/>
    <rect x="53" y="13" width="22" height="22" transform="rotate(45 64 64)"/>
    <rect x="53" y="13" width="22" height="22" transform="rotate(90 64 64)"/>
    <rect x="53" y="13" width="22" height="22" transform="rotate(135 64 64)"/>
    <rect x="53" y="13" width="22" height="22" transform="rotate(180 64 64)"/>
    <rect x="53" y="13" width="22" height="22" transform="rotate(225 64 64)"/>
    <rect x="53" y="13" width="22" height="22" transform="rotate(270 64 64)"/>
    <rect x="53" y="13" width="22" height="22" transform="rotate(315 64 64)"/>
    <circle cx="64" cy="64" r="42"/>
  </g>
  <clipPath id="disc">
    <circle cx="64" cy="64" r="30"/>
  </clipPath>
  <g clip-path="url(#disc)" stroke="#ffffff" stroke-width="14.5" stroke-linecap="butt" fill="none">
    <path d="M49.5 28v72"/>
    <path d="M48.5 70 93 25.5"/>
    <path d="M63 55.5 97 91"/>
  </g>
</svg>
